# Blender 5.0.1
# www.blender.org
mtllib gas_centrifuge.mtl
o gas_centrifuge
v 0.200000 1.000000 0.200000
v 0.200000 3.086738 0.200000
v 0.200000 1.000000 0.000000
v 0.200000 3.000000 0.000000
v 0.373205 1.000000 0.100000
v 0.373205 3.000000 0.100000
v 0.373205 1.000000 0.300000
v 0.373205 3.000000 0.300000
v 0.200000 1.000000 0.400000
v 0.200000 3.000000 0.400000
v 0.026795 1.000000 0.300000
v 0.026795 3.000000 0.300000
v 0.026795 1.000000 0.100000
v 0.026795 3.000000 0.100000
v -0.500000 0.000000 0.500000
v -0.500000 1.000000 0.500000
v -0.500000 0.000000 -0.500000
v -0.500000 1.000000 -0.500000
v 0.500000 0.000000 0.500000
v 0.500000 1.000000 0.500000
v 0.500000 0.000000 -0.500000
v 0.500000 1.000000 -0.500000
v 0.200000 1.000000 -0.200000
v 0.200000 3.086738 -0.200000
v 0.200000 1.000000 -0.400000
v 0.200000 3.000000 -0.400000
v 0.373205 1.000000 -0.300000
v 0.373205 3.000000 -0.300000
v 0.373205 1.000000 -0.100000
v 0.373205 3.000000 -0.100000
v 0.200000 1.000000 0.000000
v 0.200000 3.000000 0.000000
v 0.026795 1.000000 -0.100000
v 0.026795 3.000000 -0.100000
v 0.026795 1.000000 -0.300000
v 0.026795 3.000000 -0.300000
v -0.200000 1.000000 0.200000
v -0.200000 3.086738 0.200000
v -0.200000 1.000000 0.000000
v -0.200000 3.000000 0.000000
v -0.026795 1.000000 0.100000
v -0.026795 3.000000 0.100000
v -0.026795 1.000000 0.300000
v -0.026795 3.000000 0.300000
v -0.200000 1.000000 0.400000
v -0.200000 3.000000 0.400000
v -0.373205 1.000000 0.300000
v -0.373205 3.000000 0.300000
v -0.373205 1.000000 0.100000
v -0.373205 3.000000 0.100000
v -0.200000 1.000000 -0.200000
v -0.200000 3.086738 -0.200000
v -0.200000 1.000000 -0.400000
v -0.200000 3.000000 -0.400000
v -0.026795 1.000000 -0.300000
v -0.026795 3.000000 -0.300000
v -0.026795 1.000000 -0.100000
v -0.026795 3.000000 -0.100000
v -0.200000 1.000000 0.000000
v -0.200000 3.000000 0.000000
v -0.373205 1.000000 -0.100000
v -0.373205 3.000000 -0.100000
v -0.373205 1.000000 -0.300000
v -0.373205 3.000000 -0.300000
vn -0.0000 -1.0000 -0.0000
vn 0.2239 0.8941 -0.3878
vn 0.5000 -0.0000 -0.8660
vn 0.4478 0.8941 -0.0000
vn 1.0000 -0.0000 -0.0000
vn 0.2239 0.8941 0.3878
vn 0.5000 -0.0000 0.8660
vn -0.2239 0.8941 0.3878
vn -0.5000 -0.0000 0.8660
vn -0.4478 0.8941 -0.0000
vn -1.0000 -0.0000 -0.0000
vn -0.2239 0.8941 -0.3878
vn -0.5000 -0.0000 -0.8660
vn -0.0000 -0.0000 -1.0000
vn -0.0000 -0.0000 1.0000
vn -0.0000 1.0000 -0.0000
vt 0.952381 0.218571
vt 0.993621 0.194762
vt 0.993621 0.242381
vt 0.947075 0.579999
vt 0.904762 0.549939
vt 0.947075 0.528095
vt 0.142857 0.476190
vt 0.142857 0.000000
vt 0.190476 -0.000000
vt 0.190476 0.476190
vt 0.952381 0.266190
vt 0.993621 0.242381
vt 0.993621 0.290000
vt 0.947075 0.631904
vt 0.904762 0.601843
vt 0.190476 0.476190
vt 0.190476 0.000000
vt 0.238095 -0.000000
vt 0.238095 0.476190
vt 0.952381 0.313809
vt 0.993621 0.290000
vt 0.993621 0.337619
vt 0.989389 0.631904
vt 0.947075 0.601843
vt 0.989389 0.579999
vt 0.285714 -0.000000
vt 0.285714 0.476190
vt 0.238095 0.476190
vt 0.238095 -0.000000
vt 0.952381 0.361428
vt 0.993621 0.337619
vt 0.993621 0.385238
vt 0.947075 0.683808
vt 0.904762 0.653748
vt 0.947075 0.631904
vt 0.285714 0.476190
vt 0.285714 0.000000
vt 0.333333 -0.000000
vt 0.333333 0.476190
vt 0.952381 0.409047
vt 0.993621 0.385238
vt 0.993621 0.432857
vt 0.947075 0.735713
vt 0.904762 0.705652
vt 0.947075 0.683808
vt 0.380952 -0.000000
vt 0.380952 0.476190
vt 0.333333 0.476190
vt 0.333333 -0.000000
vt -0.000000 0.976191
vt 0.041239 0.952381
vt 0.041239 1.000000
vt 0.989389 0.683808
vt 0.947075 0.653748
vt 0.989389 0.631904
vt 0.428571 -0.000000
vt 0.428572 0.476190
vt 0.380952 -0.000000
vt 0.190476 0.476190
vt 0.428571 0.476190
vt 0.428571 0.714286
vt 0.190476 0.714286
vt 0.428571 0.476190
vt 0.666667 0.476190
vt 0.666667 0.714286
vt 0.428571 0.714286
vt 0.904762 0.714286
vt 0.666667 0.714286
vt 0.666667 0.476190
vt 0.904762 0.476190
vt 0.190476 0.714286
vt 0.428571 0.952381
vt 0.190476 0.952381
vt 0.666667 0.952381
vt 0.666667 0.714286
vt 0.904762 0.952381
vt 0.666667 0.952381
vt 0.390293 1.000000
vt 0.390293 0.952381
vt 0.431532 0.976191
vt 0.947075 0.787617
vt 0.904762 0.757556
vt 0.947075 0.735713
vt 0.476191 -0.000000
vt 0.476191 0.476190
vt 0.428571 0.000000
vt 0.678968 0.976191
vt 0.720208 0.952381
vt 0.720208 1.000000
vt 0.989389 0.735713
vt 0.947075 0.705652
vt 0.989389 0.683808
vt 0.523810 -0.000000
vt 0.523810 0.476190
vt 0.476191 0.476190
vt 0.476191 -0.000000
vt 0.041239 0.976191
vt 0.082479 0.952381
vt 0.082479 1.000000
vt 0.989389 0.787617
vt 0.947075 0.757556
vt 0.989389 0.735713
vt 0.571429 -0.000000
vt 0.571429 0.476190
vt 0.523810 0.476190
vt 0.523810 -0.000000
vt 0.095238 0.976191
vt 0.136477 0.952381
vt 0.136477 1.000000
vt 0.947075 0.839522
vt 0.904762 0.809461
vt 0.947075 0.787617
vt 0.619048 -0.000000
vt 0.619048 0.476190
vt 0.571429 0.476190
vt 0.571429 -0.000000
vt 0.720208 0.976191
vt 0.761447 0.952381
vt 0.761447 1.000000
vt 0.989389 0.839522
vt 0.947075 0.809461
vt 0.989389 0.787617
vt 0.666667 -0.000000
vt 0.666667 0.476190
vt 0.619048 0.000000
vt 0.142857 0.976191
vt 0.184096 0.952381
vt 0.184096 1.000000
vt 0.952381 0.170952
vt 0.998503 0.147143
vt 0.998503 0.194762
vt 0.714286 -0.000000
vt 0.714286 0.476190
vt 0.666667 0.476190
vt 0.666667 -0.000000
vt 0.184096 0.976191
vt 0.225336 0.952381
vt 0.225336 1.000000
vt 0.947075 0.891426
vt 0.904762 0.861365
vt 0.947075 0.839522
vt 0.761905 -0.000000
vt 0.761905 0.476190
vt 0.714286 0.476190
vt 0.714286 -0.000000
vt 0.225336 0.976191
vt 0.266575 0.952381
vt 0.266575 1.000000
vt 0.947075 0.943331
vt 0.904762 0.913270
vt 0.947075 0.891426
vt 0.809524 -0.000000
vt 0.809524 0.476190
vt 0.761905 0.476190
vt 0.761905 0.000000
vt 0.266575 0.976191
vt 0.307814 0.952381
vt 0.307814 1.000000
vt 0.989389 0.891426
vt 0.947075 0.861365
vt 0.989389 0.839522
vt 0.857143 -0.000000
vt 0.857143 0.476190
vt 0.809524 0.476190
vt 0.809524 -0.000000
vt 0.555250 0.976191
vt 0.596490 0.952381
vt 0.596490 1.000000
vt 0.904762 0.967140
vt 0.950883 0.943331
vt 0.950883 0.990950
vt 0.047619 -0.000000
vt 0.047619 0.476191
vt 0.000000 0.476190
vt 0.000000 0.000000
vt 0.431532 1.000000
vt 0.431532 0.952381
vt 0.472772 0.976191
vt 0.950883 0.967140
vt 0.997005 0.943331
vt 0.997005 0.990950
vt 0.904762 -0.000000
vt 0.904762 0.476190
vt 0.857143 0.476190
vt 0.857143 -0.000000
vt 0.472772 1.000000
vt 0.472772 0.952381
vt 0.514011 0.976191
vt 0.989389 0.528095
vt 0.947075 0.498034
vt 0.989389 0.476190
vt 0.095238 -0.000000
vt 0.095238 0.476191
vt 0.047619 0.476190
vt 0.047619 0.000000
vt 0.514011 1.000000
vt 0.514011 0.952381
vt 0.989389 0.579999
vt 0.947075 0.549939
vt 0.989389 0.528095
vt 0.047619 0.476191
vt 0.047619 0.952381
vt 0.000000 0.952381
vt 0.000000 0.476191
vt 0.761447 0.976191
vt 0.802686 0.952381
vt 0.802686 1.000000
vt 0.989389 0.943331
vt 0.947075 0.913270
vt 0.989389 0.891426
vt 0.095238 0.476191
vt 0.095238 0.952381
vt 0.047619 0.952381
vt 0.047619 0.476191
vt 0.307814 0.976191
vt 0.349054 0.952381
vt 0.349054 1.000000
vt 0.994695 0.051904
vt 0.952381 0.021844
vt 0.994695 -0.000000
vt 0.142857 0.476190
vt 0.142857 0.952381
vt 0.095238 0.952381
vt 0.095238 0.476190
vt 0.596490 0.976191
vt 0.637729 0.952381
vt 0.637729 1.000000
vt 0.947075 0.528095
vt 0.904762 0.498034
vt 0.947075 0.476190
vt 0.142857 -0.000000
vt 0.142857 0.476190
vt 0.095238 0.476190
vt 0.095238 0.000000
vt 0.349054 0.976191
vt 0.390293 0.952381
vt 0.390293 1.000000
vt 0.952381 0.075714
vt 0.998503 0.051904
vt 0.998503 0.099524
vt 0.952381 -0.000000
vt 0.952381 0.476190
vt 0.904762 0.476190
vt 0.904762 -0.000000
vt 0.678968 1.000000
vt 0.637729 0.976191
vt 0.678968 0.952381
vt 0.952381 0.123333
vt 0.998503 0.099524
vt 0.190476 0.476190
vt 0.190476 0.952381
vt 0.142857 0.476191
s 0
usemtl Material.001
f 1/1/1 3/2/1 5/3/1
f 2/4/2 6/5/2 4/6/2
f 3/7/3 4/8/3 6/9/3 5/10/3
f 1/11/1 5/12/1 7/13/1
f 2/14/4 8/15/4 6/4/4
f 5/16/5 6/17/5 8/18/5 7/19/5
f 1/20/1 7/21/1 9/22/1
f 2/23/6 10/24/6 8/25/6
f 7/26/7 8/27/7 10/28/7 9/29/7
f 1/30/1 9/31/1 11/32/1
f 2/33/8 12/34/8 10/35/8
f 9/36/9 10/37/9 12/38/9 11/39/9
f 1/40/1 11/41/1 13/42/1
f 2/43/10 14/44/10 12/45/10
f 11/46/11 12/47/11 14/48/11 13/49/11
f 1/50/1 13/51/1 3/52/1
f 2/53/12 4/54/12 14/55/12
f 13/56/13 14/57/13 4/47/13 3/58/13
f 15/59/11 16/60/11 18/61/11 17/62/11
f 17/63/14 18/64/14 22/65/14 21/66/14
f 21/67/5 22/68/5 20/69/5 19/70/5
f 19/71/15 20/61/15 16/72/15 15/73/15
f 17/74/1 21/72/1 19/61/1 15/75/1
f 22/76/16 18/77/16 16/68/16 20/67/16
f 23/78/1 25/79/1 27/80/1
f 24/81/2 28/82/2 26/83/2
f 25/84/3 26/85/3 28/57/3 27/86/3
f 23/87/1 27/88/1 29/89/1
f 24/90/4 30/91/4 28/92/4
f 27/93/5 28/94/5 30/95/5 29/96/5
f 23/97/1 29/98/1 31/99/1
f 24/100/6 32/101/6 30/102/6
f 29/103/7 30/104/7 32/105/7 31/106/7
f 23/107/1 31/108/1 33/109/1
f 24/110/8 34/111/8 32/112/8
f 31/113/9 32/114/9 34/115/9 33/116/9
f 23/117/1 33/118/1 35/119/1
f 24/120/10 36/121/10 34/122/10
f 33/123/11 34/124/11 36/114/11 35/125/11
f 23/126/1 35/127/1 25/128/1
f 24/129/12 26/130/12 36/131/12
f 35/132/13 36/133/13 26/134/13 25/135/13
f 37/136/1 39/137/1 41/138/1
f 38/139/2 42/140/2 40/141/2
f 39/142/3 40/143/3 42/144/3 41/145/3
f 37/146/1 41/147/1 43/148/1
f 38/149/4 44/150/4 42/151/4
f 41/152/5 42/153/5 44/154/5 43/155/5
f 37/156/1 43/157/1 45/158/1
f 38/159/6 46/160/6 44/161/6
f 43/162/7 44/163/7 46/164/7 45/165/7
f 37/166/1 45/167/1 47/168/1
f 38/169/8 48/170/8 46/171/8
f 45/172/9 46/173/9 48/174/9 47/175/9
f 37/176/1 47/177/1 49/178/1
f 38/179/10 50/180/10 48/181/10
f 47/182/11 48/183/11 50/184/11 49/185/11
f 37/186/1 49/187/1 39/188/1
f 38/189/12 40/190/12 50/191/12
f 49/192/13 50/193/13 40/194/13 39/195/13
f 51/196/1 53/197/1 55/166/1
f 52/198/2 56/199/2 54/200/2
f 53/201/3 54/202/3 56/203/3 55/204/3
f 51/205/1 55/206/1 57/207/1
f 52/208/4 58/209/4 56/210/4
f 55/211/5 56/212/5 58/213/5 57/214/5
f 51/215/1 57/216/1 59/217/1
f 52/218/6 60/219/6 58/220/6
f 57/221/7 58/222/7 60/223/7 59/224/7
f 51/225/1 59/226/1 61/227/1
f 52/228/8 62/229/8 60/230/8
f 59/231/9 60/232/9 62/233/9 61/234/9
f 51/235/1 61/236/1 63/237/1
f 52/238/10 64/239/10 62/240/10
f 61/241/11 62/242/11 64/243/11 63/244/11
f 51/245/1 63/246/1 53/247/1
f 52/248/12 54/249/12 64/130/12
f 63/250/13 64/251/13 54/222/13 53/252/13
